<svg width="116" height="73" viewBox="0 0 116 73" fill="none" xmlns="http://www.w3.org/2000/svg">
<path d="M55.0308 45.42C47.2805 54.286 39.5303 63.1474 31.7708 72.0134H0.691406C15.7401 60.69 30.7934 49.3712 45.8467 38.0479L55.0308 45.42Z" fill="white"/>
<path d="M98.8861 72.0131H98.4803L98.3097 71.8886C98.1576 71.7779 97.9916 71.6581 97.8118 71.529C97.3969 71.2293 96.9128 70.8789 96.3687 70.487C96.2535 70.404 96.1336 70.3164 96.0091 70.2288L95.2668 69.6894C95.1285 69.5879 94.9856 69.4865 94.838 69.3805L93.9759 68.758C75.8059 55.6135 19.0368 14.5662 0 0.905273H27.5293L98.8538 71.9762L98.8861 72.0131Z" fill="white"/>
<path d="M115.998 0.905273L69.2198 36.2909C66.4903 33.5707 63.7194 30.809 60.9531 28.0427L94.0796 0.905273H115.998Z" fill="white"/>
</svg>
