<svg width="141" height="30" viewBox="0 0 141 30" fill="none" xmlns="http://www.w3.org/2000/svg">
<path d="M11.4765 26.3048C9.48501 26.3048 7.70181 25.8425 6.1269 24.9179C4.56215 23.9933 3.32763 22.6622 2.42333 20.9247C1.52918 19.1873 1.08211 17.0992 1.08211 14.6607C1.08211 12.212 1.53427 10.1188 2.43857 8.38137C3.35303 6.63373 4.59263 5.2976 6.15738 4.37297C7.73229 3.44835 9.50533 2.98604 11.4765 2.98604C12.7263 2.98604 13.8948 3.16385 14.9819 3.51947C16.0793 3.8751 17.0547 4.39837 17.9082 5.0893C18.7617 5.77007 19.4577 6.60833 19.9963 7.60407C20.5449 8.58966 20.9056 9.71242 21.0784 10.9723H16.9328C16.821 10.2814 16.6026 9.67178 16.2774 9.14342C15.9625 8.61506 15.5662 8.16799 15.0886 7.80221C14.6212 7.42626 14.0878 7.14684 13.4883 6.96395C12.8888 6.7709 12.2436 6.67437 11.5527 6.67437C10.3131 6.67437 9.21575 6.98427 8.26065 7.60407C7.30554 8.21372 6.55873 9.11802 6.02021 10.317C5.4817 11.5058 5.21244 12.9537 5.21244 14.6607C5.21244 16.388 5.4817 17.8461 6.02021 19.0349C6.56889 20.2135 7.3157 21.1076 8.26065 21.7173C9.21575 22.3168 10.308 22.6165 11.5375 22.6165C12.2182 22.6165 12.8533 22.5301 13.4426 22.3574C14.0319 22.1745 14.5654 21.9053 15.0429 21.5496C15.5306 21.1838 15.932 20.7469 16.247 20.2389C16.5721 19.7207 16.8007 19.1263 16.9328 18.4557H21.0784C20.926 19.5429 20.5907 20.564 20.0725 21.5191C19.5644 22.4641 18.8938 23.2973 18.0606 24.0187C17.2376 24.7299 16.2724 25.2888 15.1648 25.6952C14.0573 26.1016 12.8279 26.3048 11.4765 26.3048ZM27.5558 3.29086V26H23.5474V3.29086H27.5558ZM41.3794 18.852V8.96053H45.3878V26H41.5014V22.967H41.3185C40.9324 23.9222 40.3024 24.7045 39.4286 25.3142C38.5548 25.9238 37.4777 26.2236 36.1975 26.2134C35.0798 26.2134 34.0942 25.9695 33.2407 25.4818C32.3974 24.9839 31.7319 24.2575 31.2441 23.3024C30.7666 22.3371 30.5278 21.1737 30.5278 19.8122V8.96053H34.5362V19.2025C34.5362 20.2694 34.8309 21.1229 35.4202 21.763C36.0197 22.4031 36.802 22.7181 37.7673 22.7079C38.3566 22.7079 38.9256 22.5657 39.4743 22.2812C40.0331 21.9967 40.4904 21.57 40.846 21.001C41.2016 20.432 41.3794 19.7156 41.3794 18.852ZM61.8024 13.4871L58.1598 13.8681C58.0074 13.3093 57.6772 12.8165 57.1692 12.3898C56.6611 11.9529 55.9448 11.7344 55.0202 11.7344C54.187 11.7344 53.4859 11.9173 52.9169 12.2831C52.3581 12.6489 52.0787 13.1163 52.0787 13.6853C52.0787 14.1831 52.2615 14.5946 52.6273 14.9198C53.0033 15.2348 53.6231 15.4888 54.4867 15.6818L57.3978 16.2915C58.993 16.6268 60.1869 17.1755 60.9794 17.9375C61.772 18.6996 62.1682 19.6851 62.1682 20.8943C62.1682 21.9611 61.8583 22.9061 61.2385 23.7291C60.6187 24.5521 59.7601 25.1922 58.6628 25.6495C57.5756 26.1067 56.3207 26.3353 54.8982 26.3353C52.8153 26.3353 51.1388 25.8984 49.8687 25.0246C48.6088 24.1406 47.8518 22.9162 47.5978 21.3515L51.5147 20.9857C51.6875 21.7478 52.0634 22.3269 52.6426 22.7232C53.2319 23.1093 53.9838 23.3024 54.8982 23.3024C55.8533 23.3024 56.6205 23.1093 57.1996 22.7232C57.7788 22.3269 58.0684 21.8443 58.0684 21.2753C58.0684 20.3202 57.3063 19.6699 55.7822 19.3244L52.8712 18.7148C51.2353 18.3592 50.0262 17.7851 49.2438 16.9926C48.4614 16.1899 48.0703 15.1687 48.0703 13.9291C48.0703 12.8724 48.3598 11.9579 48.939 11.1857C49.5182 10.4135 50.3259 9.81403 51.3623 9.38728C52.3987 8.96053 53.5977 8.74715 54.9592 8.74715C56.9609 8.74715 58.5307 9.17898 59.6687 10.0426C60.8168 10.8961 61.5281 12.0443 61.8024 13.4871ZM72.8217 8.96053V12.0697H63.0522V8.96053H72.8217ZM65.445 4.90641H69.4534V20.879C69.4534 21.5496 69.6008 22.0475 69.8954 22.3726C70.1901 22.6876 70.6575 22.8451 71.2976 22.8451C71.4703 22.8451 71.6634 22.8299 71.8768 22.7994C72.0901 22.7689 72.2832 22.7334 72.4559 22.6927L73.1418 25.8324C72.715 25.9645 72.2832 26.061 71.8463 26.1219C71.4094 26.1931 70.9725 26.2286 70.5356 26.2286C68.9505 26.2286 67.7058 25.812 66.8015 24.9789C65.8972 24.1355 65.445 22.9874 65.445 21.5344V4.90641ZM82.3931 26.3353C80.6861 26.3353 79.2128 25.9797 77.9732 25.2684C76.7336 24.547 75.7785 23.531 75.1079 22.2202C74.4474 20.9095 74.1172 19.3651 74.1172 17.587C74.1172 15.8292 74.4474 14.2898 75.1079 12.9689C75.7683 11.6379 76.698 10.6015 77.897 9.85975C79.0959 9.11802 80.5083 8.74715 82.134 8.74715C83.1805 8.74715 84.1712 8.9148 85.106 9.25011C86.0509 9.58541 86.8841 10.1036 87.6055 10.8047C88.3371 11.5058 88.9112 12.3999 89.3278 13.4871C89.7444 14.5642 89.9526 15.8495 89.9526 17.3431V18.5929H75.9919V15.8952H87.9561L86.0814 16.6877C86.0814 15.7225 85.9341 14.8842 85.6394 14.173C85.3448 13.4516 84.9079 12.8876 84.3287 12.4812C83.7495 12.0748 83.0281 11.8716 82.1645 11.8716C81.3008 11.8716 80.5642 12.0748 79.9545 12.4812C79.3449 12.8876 78.8826 13.4363 78.5676 14.1272C78.2526 14.808 78.0951 15.5701 78.0951 16.4134V18.288C78.0951 19.3244 78.2729 20.2135 78.6286 20.9552C78.9943 21.6868 79.5024 22.2456 80.1527 22.6317C80.8131 23.0179 81.5802 23.2109 82.4541 23.2109C83.0231 23.2109 83.5412 23.1296 84.0086 22.967C84.4862 22.8045 84.8926 22.5606 85.2279 22.2355C85.5734 21.9002 85.8376 21.4887 86.0205 21.001L89.7698 21.4429C89.5259 22.4285 89.0737 23.2922 88.4133 24.0339C87.763 24.7655 86.9248 25.3345 85.8985 25.7409C84.8825 26.1372 83.714 26.3353 82.3931 26.3353ZM92.1321 26V8.96053H96.0186V11.8258H96.2015C96.5063 10.8301 97.0397 10.068 97.8018 9.53969C98.5638 9.00117 99.4326 8.73191 100.408 8.73191C100.621 8.73191 100.865 8.74207 101.14 8.76239C101.424 8.78272 101.658 8.80812 101.841 8.8386V12.5269C101.668 12.466 101.399 12.4152 101.033 12.3745C100.667 12.3339 100.317 12.3136 99.9813 12.3136C99.2395 12.3136 98.5791 12.471 97.9999 12.786C97.4208 13.101 96.9635 13.5328 96.6282 14.0815C96.3031 14.6302 96.1405 15.2703 96.1405 16.0019V26H92.1321Z" fill="#FB6620"/>
<path d="M116.822 18.5531C113.748 22.0691 110.675 25.5832 107.598 29.0992H95.2726C101.24 24.6087 107.21 20.12 113.18 15.6295L116.822 18.5531Z" fill="#FB6620"/>
<path d="M134.215 29.0996H134.054L133.987 29.0502C133.926 29.0063 133.86 28.9588 133.789 28.9076C133.625 28.7888 133.433 28.6498 133.217 28.4944C133.171 28.4615 133.124 28.4267 133.074 28.392L132.78 28.1781C132.725 28.1379 132.668 28.0976 132.61 28.0556L132.268 27.8088C125.062 22.596 102.549 6.31791 95 0.900406H105.917L134.202 29.085L134.215 29.0996Z" fill="#FB6620"/>
<path d="M141 0.900406L122.449 14.9333C121.367 13.8545 120.268 12.7593 119.171 11.6623L132.308 0.900406H141Z" fill="#FB6620"/>
</svg>
