<svg width="32" height="19" viewBox="0 0 32 19" fill="none" xmlns="http://www.w3.org/2000/svg">
<path d="M30.7421 9.77126C29.5267 6.89988 27.4996 4.45949 24.9465 2.73475C22.3935 1.00952 19.3092 0 15.9993 0C13.7938 0 11.687 0.448043 9.77251 1.25801C6.8997 2.47314 4.45924 4.5008 2.73425 7.05357C1.00958 9.60489 0 12.6915 0 15.9993C0 16.276 0.0068122 16.5501 0.0206866 16.8233H5.03309V15.1752H2.36083C2.45533 13.5881 2.81944 12.076 3.40866 10.682C3.99082 9.30453 4.79448 8.04146 5.77225 6.93819L7.66179 8.82824L8.82774 7.66198L6.93945 5.77343C7.38855 5.37576 7.86228 5.00428 8.36101 4.66867C10.3302 3.3391 12.6579 2.51245 15.1753 2.36277V5.03353H16.8233V2.36077C18.4122 2.45602 19.9242 2.81938 21.3181 3.4091C22.6958 3.99126 23.9591 4.79466 25.0619 5.77237L23.1724 7.66191L24.3368 8.82817L26.2266 6.93963C26.6248 7.38874 26.994 7.86247 27.3322 8.36144C28.6612 10.3307 29.4883 12.6586 29.6378 15.1751H26.9668V16.8233H31.9767C31.9918 16.5501 31.9985 16.2759 31.9985 15.9992C32.0002 13.7942 31.551 11.6875 30.7421 9.77126Z" fill="white"/>
<path d="M20.585 5.70333C20.4966 5.66452 20.387 5.70789 20.3267 5.80664L15.6155 13.5608C14.4333 13.7458 13.5281 14.7664 13.5281 16.0003C13.5281 17.3656 14.6347 18.4724 16 18.4724C17.3651 18.4724 18.472 17.3656 18.472 16.0003C18.472 15.5381 18.343 15.1077 18.1224 14.7377L20.6828 5.96332C20.7153 5.85257 20.6735 5.7422 20.585 5.70333ZM16 17.2361C15.3173 17.2361 14.764 16.6832 14.764 16.0003C14.764 15.3174 15.3173 14.764 16 14.764C16.6825 14.764 17.2359 15.3174 17.2359 16.0003C17.2359 16.6832 16.6825 17.2361 16 17.2361Z" fill="white"/>
</svg>
